<?xml version="1.0" encoding="UTF-8"?>
<svg xmlns="http://www.w3.org/2000/svg" version="1.1" viewBox="0 0 140 140">
  <defs>
    <style>
      .cls-1 {
        fill: #c5b6f1;
      }

      .cls-2 {
        fill: #0a0a0a;
      }
    </style>
  </defs>
  <!-- Generator: Adobe Illustrator 28.7.1, SVG Export Plug-In . SVG Version: 1.2.0 Build 142)  -->
  <g>
    <g id="Layer_1">
      <path class="cls-1" d="M115,134H25c-10.5,0-19-8.5-19-19V25C6,14.5,14.5,6,25,6h90c10.5,0,19,8.5,19,19v90c0,10.5-8.5,19-19,19Z"/>
      <g>
        <g>
          <path class="cls-2" d="M32.9,80.8c-1.8,0-3.4-.3-4.8-.8s-2.4-1.3-3.2-2.3c-.8-1-1.2-2.3-1.2-3.8h4.6c0,.7.3,1.3.7,1.8.4.5.9.8,1.6,1.1.7.2,1.4.4,2.2.4s1.5-.1,2.1-.3c.6-.2,1.1-.5,1.4-.9.3-.4.5-.8.5-1.4s-.2-.9-.5-1.2c-.3-.3-.7-.6-1.3-.8-.6-.2-1.3-.4-2.1-.6l-2.5-.6c-1.9-.4-3.4-1.1-4.5-2-1.1-.9-1.7-2.2-1.7-3.7s.4-2.4,1.1-3.3c.7-1,1.8-1.7,3.1-2.2,1.3-.5,2.8-.8,4.4-.8s3.2.3,4.4.8c1.3.5,2.2,1.3,2.9,2.2.7,1,1.1,2,1.1,3.3h-4.6c0-.8-.5-1.5-1.1-1.9-.7-.5-1.6-.7-2.7-.7s-1.4.1-2,.3c-.5.2-1,.5-1.2.8-.3.4-.4.8-.4,1.2s.2.9.5,1.2c.3.3.8.6,1.3.8.5.2,1.1.4,1.8.5l2,.5c1,.2,1.9.5,2.7.8.8.3,1.6.8,2.2,1.3.6.5,1.1,1.1,1.4,1.8.3.7.5,1.4.5,2.3,0,1.3-.3,2.4-1,3.4-.7.9-1.7,1.7-3,2.2-1.3.5-2.9.8-4.8.8Z"/>
          <path class="cls-2" d="M48.5,80.8c-1.1,0-2-.2-2.9-.5-.9-.4-1.5-.9-2-1.6-.5-.7-.7-1.6-.7-2.6s.2-1.6.5-2.2c.3-.6.8-1.1,1.4-1.4.6-.4,1.3-.6,2-.8.8-.2,1.6-.3,2.4-.4,1,0,1.8-.2,2.4-.3.6,0,1-.2,1.3-.4.3-.2.4-.4.4-.8h0c0-.7-.2-1.2-.7-1.6-.4-.4-1.1-.5-1.9-.5s-1.5.2-2,.5c-.5.3-.8.8-1,1.3l-4.4-.3c.2-1,.7-1.8,1.3-2.5.7-.7,1.5-1.2,2.5-1.6,1-.4,2.2-.6,3.6-.6s1.9.1,2.7.3c.9.2,1.6.5,2.3,1,.7.4,1.2,1,1.6,1.7.4.7.6,1.5.6,2.4v10.6h-4.5v-2.2h-.1c-.3.5-.6.9-1.1,1.3-.5.4-1,.7-1.6.9-.6.2-1.4.3-2.2.3ZM49.8,77.8c.7,0,1.3-.1,1.8-.4.5-.3,1-.6,1.3-1,.3-.4.5-.9.5-1.5v-1.7c-.1,0-.3.2-.6.2-.3,0-.5.1-.9.2-.3,0-.6.1-.9.1-.3,0-.6,0-.9.1-.6,0-1,.2-1.5.4-.4.2-.7.4-1,.7-.2.3-.3.6-.3,1,0,.6.2,1,.7,1.4.5.3,1.1.5,1.8.5Z"/>
          <path class="cls-2" d="M63.9,71.4v9.1h-4.7v-15.8h4.6v2.8h.2c.4-.9,1-1.7,1.8-2.2.8-.5,1.9-.8,3.2-.8s2.2.2,3.1.7c.9.5,1.6,1.2,2.1,2,.5.9.7,1.9.7,3.2v10h-4.7v-9.3c0-1-.3-1.7-.8-2.3-.5-.6-1.3-.8-2.2-.8s-1.2.1-1.7.4c-.5.3-.9.6-1.1,1.1-.3.5-.4,1.1-.4,1.7Z"/>
        </g>
        <g>
          <path class="cls-2" d="M76.1,80.5v-21h15v3.7h-10.3v5.8h9.3v3.6h-9.3v8h-4.8Z"/>
          <path class="cls-2" d="M91.7,80.5v-15.8h4.6v2.8h.2c.3-1,.8-1.7,1.6-2.2.7-.5,1.6-.8,2.5-.8s.5,0,.8,0c.3,0,.5,0,.7.1v3.9c-.2,0-.5-.1-.9-.2-.4,0-.8,0-1.1,0-.7,0-1.3.1-1.8.4-.5.3-1,.7-1.3,1.2-.3.5-.5,1.1-.5,1.7v8.9h-4.7Z"/>
          <path class="cls-2" d="M106.6,80.8c-1.1,0-2-.2-2.9-.5-.9-.4-1.5-.9-2-1.6-.5-.7-.7-1.6-.7-2.6s.2-1.6.5-2.2c.3-.6.8-1.1,1.4-1.4.6-.4,1.3-.6,2-.8.8-.2,1.6-.3,2.4-.4,1,0,1.8-.2,2.4-.3.6,0,1-.2,1.3-.4.3-.2.4-.4.4-.8h0c0-.7-.2-1.2-.7-1.6-.4-.4-1.1-.5-1.9-.5s-1.5.2-2,.5c-.5.3-.8.8-1,1.3l-4.4-.3c.2-1,.7-1.8,1.3-2.5.7-.7,1.5-1.2,2.5-1.6,1-.4,2.2-.6,3.6-.6s1.9.1,2.7.3c.9.2,1.6.5,2.3,1,.7.4,1.2,1,1.6,1.7.4.7.6,1.5.6,2.4v10.6h-4.5v-2.2h-.1c-.3.5-.6.9-1.1,1.3-.5.4-1,.7-1.6.9-.6.2-1.4.3-2.2.3ZM108,77.8c.7,0,1.3-.1,1.8-.4.5-.3,1-.6,1.3-1,.3-.4.5-.9.5-1.5v-1.7c-.1,0-.3.2-.6.2-.3,0-.5.1-.9.2-.3,0-.6.1-.9.1-.3,0-.6,0-.9.1-.6,0-1,.2-1.5.4-.4.2-.7.4-1,.7-.2.3-.3.6-.3,1,0,.6.2,1,.7,1.4.5.3,1.1.5,1.8.5Z"/>
        </g>
      </g>
    </g>
  </g>
</svg>